<svg width="2627" height="1247" viewBox="0 0 2627 1247" fill="none" xmlns="http://www.w3.org/2000/svg">
<path d="M1299.97 209.09C1297 209.675 1294.27 209.473 1290.85 209.557C1293.51 209.33 1296.86 208.817 1299.97 209.09Z" fill="#35B3D0"/>
<path d="M377.968 802.383C380.188 806.324 382.407 810.265 384.918 816.715C394.366 837.014 403.515 854.81 412.667 872.608C413.303 873.192 413.942 873.775 415.687 874.874C416.797 875.387 416.614 874.965 416.614 874.965C419.508 880.189 422.402 885.412 426.258 891.612C427.221 892.585 427.066 892.114 427.066 892.114C452.978 942.156 478.89 992.194 505.68 1043.94C500.447 1044.59 496.204 1045.57 491.958 1045.57C456.318 1045.5 420.66 1045.78 385.052 1044.63C377.174 1044.38 367.822 1040.69 361.932 1035.46C287.849 969.593 214.388 903.028 140.435 837.018C130.936 828.538 127.687 819.88 127.961 806.925C128.915 761.959 128.05 716.955 129.61 670.373C133.893 675.417 138.016 681.919 138.618 688.73C139.462 698.267 139.038 706.216 149.987 711.542C165.898 719.28 180.432 729.804 195.908 738.505C209.487 746.142 223.526 752.96 237.414 760.038C252.315 767.636 267.651 774.468 282.081 782.863C291.922 788.589 300.003 797.321 309.796 803.152C334.744 818.014 360.211 832.002 389.502 848.627C384.543 837.713 379.496 828.563 376.321 818.801C374.712 813.859 376.482 807.821 377.023 802.436C377.322 802.597 377.968 802.383 377.968 802.383Z" fill="#1C377E"/>
<path d="M838.044 331.003C846.877 337.571 855.713 344.14 865.515 352.652C869.867 356.214 873.249 357.83 876.631 359.449C884.768 364.047 883.581 368.951 877.319 374.339C847.85 399.683 818.423 425.08 789.009 450.494C774.993 462.602 760.14 473.917 747.336 487.202C736.311 498.639 727.658 498.13 716.008 488.635C683.051 461.77 649.754 435.302 615.943 409.529C609.646 404.731 600.371 401.731 592.406 401.594C548.007 400.832 503.587 401.289 459.177 401.109C452.504 401.081 445.835 399.887 436.219 398.946C450.218 372.306 462.324 348.034 475.898 324.617C478.254 320.556 486.817 318.34 492.545 318.272C537.534 317.746 582.537 317.739 627.53 318.187C633.391 318.245 640.205 320.472 644.907 323.954C675.321 346.482 706.031 368.726 735.065 392.96C750.117 405.521 763.052 403.361 783.088 393.297C755.863 370.967 730.826 350.427 705.374 327.613C713.585 324.222 722.414 321.354 730.78 322.356C747.283 324.332 763.445 328.998 779.906 331.51C792.669 333.457 805.663 334.406 818.581 334.643C825.043 334.762 831.554 332.298 838.044 331.003Z" fill="#BABBBE"/>
<path d="M762.824 874.759C778.621 861.674 793.098 848.919 808.494 837.394C812.572 834.345 821.651 832.22 824.748 834.556C843.72 848.877 861.631 864.603 881.625 881.306C859.191 899.583 838.621 916.468 817.914 933.185C775.267 967.602 732.845 1002.31 689.577 1035.93C682.03 1041.79 670.868 1045.45 661.242 1045.75C625.633 1046.82 589.962 1045.69 554.329 1046.23C543.547 1046.39 537.46 1043.24 532.853 1033.06C522.794 1010.83 511.285 989.24 499.07 964.788C506.579 964.191 512.542 963.32 518.506 963.306C557.072 963.211 595.648 963.794 634.192 962.955C642.842 962.765 652.887 959.832 659.725 954.728C694.234 928.959 727.893 902.056 762.824 874.759Z" fill="#636974"/>
<path d="M376.725 802.274C376.482 807.817 374.712 813.859 376.321 818.801C379.496 828.56 384.543 837.71 389.502 848.628C360.211 832.002 334.745 818.011 309.796 803.152C300.003 797.318 291.923 788.589 282.082 782.863C267.652 774.464 252.315 767.632 237.414 760.038C223.527 752.96 209.487 746.138 195.909 738.505C180.432 729.801 165.899 719.28 149.987 711.538C139.039 706.213 139.462 698.267 138.619 688.731C138.017 681.919 133.894 675.418 129.898 668.75C128.201 652.065 127.948 635.408 129.101 616.201C131.059 585.279 131.39 556.9 132.299 528.538C132.567 520.164 134.468 511.839 136.603 504.564C138.055 515.496 138.975 525.356 138.901 535.213C138.754 554.69 151.27 568.344 164.362 577.909C179.339 588.851 198.941 593.267 215.966 601.665C226.851 607.036 236.71 614.49 246.571 620.722C248.956 618.663 254.074 614.244 259.193 609.829C262.435 616.844 267.838 623.669 268.478 630.915C269.901 647.053 281.912 649.87 294.244 655.002C298.111 660.394 301.039 665.045 304.067 670.963C306.906 675.41 309.644 678.593 312.383 681.772C312.383 681.772 313.617 682.91 313.99 684.712C315.699 688.945 317.036 691.372 318.497 695.018C325.08 707.056 331.539 717.875 337.998 728.694C337.998 728.694 338.733 729.246 338.849 730.844C343.272 739.362 347.58 746.286 351.888 753.209C351.888 753.209 352.72 753.877 352.818 755.45C354.817 760.266 356.717 763.508 358.613 766.754C359.13 767.274 359.646 767.794 360.369 770.305C362.013 774.159 363.446 776.024 364.875 777.889C365.384 778.223 365.894 778.557 366.982 779.452C367.558 780.018 367.435 779.607 367.435 779.607C370.621 785.607 373.806 791.61 377.083 799.506C377.174 801.4 376.725 802.274 376.725 802.274Z" fill="#2A5D9D"/>
<path d="M594.446 848.824C603.936 845.828 613.151 844.532 619.494 839.565C653.038 813.294 686.156 786.453 718.72 758.977C726.825 752.138 732.543 752.405 739.711 758.661C757.661 774.324 775.667 789.92 795.907 807.501C778.238 820.916 762.055 832.968 746.127 845.347C712.549 871.435 679.35 898.023 645.392 923.599C638.947 928.453 629.742 931.867 621.731 932.033C579.692 932.907 537.618 932.995 495.583 932.068C489.229 931.927 480.358 926.521 477.218 920.968C464.68 898.778 453.947 875.57 440.595 848.835C493.349 848.835 543.097 848.835 594.446 848.824Z" fill="#636974"/>
<path d="M2232.63 723.685C2228.26 731.532 2224.72 738.224 2221.81 745.179C2210.86 771.296 2178.06 779.445 2153.9 760.902C2178.52 708.299 2203.38 655.507 2227.91 602.564C2236.21 584.664 2244.37 566.64 2251.27 548.177C2255.94 535.651 2262.18 529.065 2276.73 529.82C2293.11 530.674 2309.47 527.958 2318.32 547.24C2347.91 611.736 2378.04 675.976 2407.82 740.384C2410.95 747.149 2413.09 754.375 2415.74 761.555C2393.49 780.502 2349.66 766.729 2343.49 737.444C2340.56 723.516 2333.75 719.055 2320.69 719.234C2297.3 719.557 2273.91 718.946 2250.53 719.252C2244.92 719.326 2239.34 721.461 2232.63 723.685ZM2290.98 605.265C2289.03 601.18 2287.08 597.095 2285.14 593.01C2283.03 594.25 2280.91 595.49 2278.8 596.73C2270.86 617.62 2262.3 638.316 2255.48 659.564C2254.1 663.843 2258.94 674.736 2261.46 674.915C2280.16 676.243 2299 675.635 2319.42 675.635C2309.37 650.505 2300.77 629.004 2290.98 605.265Z" fill="#41F0F2"/>
<path d="M930.938 547.903C986.358 521.804 1060.74 532.286 1088.74 573.468C1079.89 582.91 1070.87 592.542 1062.01 601.991C1006.23 567.075 965.872 566.246 938.422 598.784C916.1 625.242 915.489 677.496 937.355 703.56C953.763 723.115 975.709 732.178 999.921 727.028C1021.28 722.486 1041.38 712.082 1064.96 703.163C1070.12 708.063 1079.27 716.764 1088.03 725.093C1069.79 758.028 1019.89 776.803 972.777 769.806C924.153 762.591 884.79 727.085 874.819 681.451C862.692 625.933 881.984 579.232 930.938 547.903Z" fill="#1C377E"/>
<path d="M293.305 654.26C281.912 649.869 269.901 647.052 268.478 630.915C267.839 623.668 262.435 616.843 259.194 609.828C254.075 614.243 248.956 618.662 246.571 620.721C236.71 614.489 226.852 607.035 215.966 601.664C198.941 593.262 179.339 588.85 164.362 577.908C151.27 568.343 138.754 554.689 138.901 535.212C138.975 525.355 138.055 515.495 136.581 502.948C134.422 480.523 132.568 460.792 132.393 441.047C132.297 430.249 135.373 421.025 148.584 432.982C151.174 435.325 156.964 433.913 161.186 434.718C168.163 436.052 175.639 436.572 181.896 439.554C206.249 451.164 229.854 464.382 254.406 475.531C280.844 487.531 308.033 497.882 338.54 510.454C317.721 538.788 302.443 567.75 297.135 600.807C296.508 602.883 295.881 604.956 294.603 608.44C293.951 609.849 293.869 609.442 293.869 609.442C292.239 612.318 290.61 615.195 287.262 620.001C288.131 632.706 290.718 643.483 293.305 654.26Z" fill="#2492BE"/>
<path d="M325.008 250.183C327.824 247.026 330.641 243.868 335.445 239.399C346.955 228.798 356.478 219.509 365.999 210.22C375.787 208.39 385.579 206.561 398.085 204.507C403.76 204.483 406.718 204.683 409.678 204.883C418.574 204.8 427.474 204.716 439.59 204.514C453.772 204.363 464.733 204.295 475.694 204.306C497.563 204.327 500.478 208.81 491.624 228.701C489.626 232.41 487.631 236.119 484.513 242.302C479.901 250.419 476.414 256.064 472.923 261.708C470.946 265.713 468.968 269.717 465.484 275.215C463.398 277.789 462.815 278.869 462.232 279.948C461.158 283.748 460.086 287.549 457.491 293.541C441.673 319.38 427.375 343.028 412.042 367.328C406.858 376.064 401.432 377.866 392.431 374.392C357.858 361.05 323.059 348.289 288.169 335.798C274.781 331.006 261.801 326.486 258.937 310.004C260.354 309.086 261.129 308.512 261.873 307.898C262.485 306.846 263.098 305.794 264.77 305.405C266.785 304.75 267.737 303.431 268.69 302.112C268.979 301.416 269.267 300.722 270.843 298.812C274.244 295.68 276.358 293.763 278.472 291.845C279.062 291.096 279.652 290.348 281.575 288.207C284.652 285.06 286.395 283.305 288.138 281.55C289.661 280.237 291.184 278.924 295.792 275.566C303.486 269.148 308.094 264.774 312.703 260.401C313.965 259.147 315.228 257.893 319.215 254.969C322.963 252.259 323.986 251.221 325.008 250.183Z" fill="#41F0F2"/>
<path d="M837.841 329.853C831.554 332.294 825.043 334.757 818.581 334.639C805.664 334.402 792.669 333.453 779.906 331.505C763.445 328.994 747.283 324.327 730.78 322.351C722.414 321.35 713.585 324.217 704.622 326.704C693.082 319.788 681.471 312.002 670.791 303.101C655.903 290.698 640.261 284.365 619.919 285.238C579.868 286.957 539.69 285.745 495.502 285.745C510.08 258.17 522.682 233.693 536.147 209.7C537.773 206.806 544.049 205.27 548.186 205.237C589.084 204.908 629.988 204.775 670.882 205.309C676.688 205.385 683.392 208.077 688.074 211.657C737.046 249.089 785.698 286.942 834.396 324.732C835.713 325.753 836.566 327.369 837.841 329.853Z" fill="#D4D4D7"/>
<path d="M413.078 366.67C427.372 343.022 441.67 319.374 456.252 295.105C451.96 305.872 448.262 317.712 442.664 328.573C398.655 413.979 354.326 499.218 309.921 584.418C307.032 589.964 302.711 594.762 298.095 600.358C302.442 567.75 317.72 538.788 338.539 510.458C308.031 497.883 280.843 487.534 254.405 475.532C229.853 464.386 206.248 451.164 181.894 439.555C175.638 436.573 168.162 436.053 161.185 434.721C156.964 433.913 151.173 435.326 148.583 432.983C135.372 421.025 132.296 430.25 132.392 441.048C132.567 460.792 134.422 480.527 135.597 501.877C134.467 511.839 132.566 520.164 132.298 528.538C131.389 556.899 131.058 585.282 129.42 614.56C127.694 599.824 126.547 584.186 126.51 568.544C126.412 526.455 126.204 484.348 127.451 442.291C127.713 433.481 131.814 422.613 137.951 416.533C160.126 394.571 183.824 374.135 207.156 353.357C217.355 344.276 228.058 335.759 239.311 327.937C226.793 344.56 213.497 360.232 198.89 377.451C208.768 382.179 216.852 386.605 225.356 389.97C234.451 393.567 244.239 395.478 253.189 399.359C265.862 404.853 277.722 412.286 290.521 417.411C305.666 423.474 321.489 427.829 336.934 433.169C366.365 443.341 367.629 444.343 385.611 419.434C397.095 403.525 404.077 384.371 413.078 366.67Z" fill="#35B3D0"/>
<path d="M1408.21 536.771C1415.13 541.18 1422.21 544.538 1425.78 550.137C1443.68 578.189 1460.64 606.835 1478 635.228C1478.53 636.092 1479.87 636.461 1483.23 638.562C1491.56 625.74 1500.09 612.951 1508.26 599.926C1515.39 588.541 1523.5 577.487 1528.74 565.245C1541.74 534.938 1564.99 531.457 1595.5 538.791C1583.68 558.469 1572.25 577.603 1560.71 596.662C1549.21 615.641 1538.62 635.27 1525.78 653.294C1511.48 673.365 1505.69 694.624 1507.89 719.009C1509.19 733.4 1508.13 748.003 1508.13 763.982C1490.05 763.982 1473.53 763.982 1455.01 763.982C1455.01 743.928 1456.77 724.025 1454.44 704.618C1452.64 689.713 1448.03 674.089 1440.6 661.12C1417.97 621.648 1393.36 583.314 1369.61 544.482C1368.82 543.189 1369.02 541.296 1368.29 536.754C1381.67 536.754 1394.21 536.754 1408.21 536.771Z" fill="#2A5D9D"/>
<path d="M1641.65 562.745C1657.87 541.844 1681.65 534.829 1705.71 531.261C1766.77 522.201 1817.76 550.134 1844.75 605.248C1862.74 641.994 1852.33 702.823 1822.48 729.119C1823.08 725.153 1824.57 722.217 1826.06 719.277C1814.6 733.366 1784.24 719.526 1784.4 752.05C1773.85 746.918 1765.76 742.98 1760.42 740.381C1767.89 728.757 1774.11 719.069 1780.61 709.448C1780.89 709.511 1781.29 709.915 1782.12 709.968C1783.35 709.648 1783.74 709.279 1784.14 708.911C1783.32 708.254 1782.5 707.593 1781.95 705.689C1804.16 672.53 1806.21 639.128 1786.35 606.126C1767.47 574.754 1736.11 574.445 1704.35 577.638C1701.46 577.93 1698.6 578.531 1695.14 577.93C1692.24 578.502 1689.94 580.139 1687.2 581.85C1686.77 581.927 1686.41 581.119 1684.98 581.067C1671.13 582.286 1670.05 583.635 1674.4 593.091C1671.74 595.697 1669.4 597.26 1666.42 598.068C1663.95 600.235 1662.13 603.154 1660.45 606.126C1660.59 606.179 1660.73 606.449 1659.44 606.232C1651.27 610.981 1644.38 615.948 1638.46 620.212C1634.03 609.379 1664.85 593.382 1640.5 581.088C1640.96 573.792 1641.31 568.267 1641.65 562.745Z" fill="#3CC9DD"/>
<path d="M1322.06 735.301C1310.58 743.759 1300.13 754.469 1287.44 760.3C1220 791.289 1135.82 756.11 1115.97 687.156C1095.39 615.68 1136.12 549.21 1203.84 538.826C1211.66 539.184 1216.89 539.184 1222.12 539.184C1222.68 541.457 1223.24 543.726 1223.8 545.999C1199.76 542.669 1179.79 547.931 1167.58 568.273C1168.85 571.15 1170.2 574.213 1170.79 577.655C1169.06 578.751 1168.42 579.679 1166.79 581.01C1162.59 586.851 1159.68 592.507 1156.78 598.159C1158.69 598.816 1160.6 599.472 1162.51 600.126C1164.36 593.68 1166.21 587.234 1168.83 580.423C1170.58 579.366 1171.24 578.449 1172.85 577.192C1181.46 577.139 1188.82 577.209 1196.33 578.46C1196.63 580.416 1196.78 581.196 1196.25 582.977C1164.25 603.941 1158.52 634.086 1163.09 667.741C1167.64 701.143 1193.1 724.169 1226.56 727.664C1264.09 731.584 1289.25 714.579 1307.45 682.733C1310.03 685.393 1313.31 689.039 1312.55 690.402C1303.2 707.013 1290.55 720.158 1273.02 728.767C1269.48 730.509 1266.98 737.956 1267.16 742.646C1267.33 746.987 1270.99 752.147 1274.64 754.961C1276.25 756.201 1282.13 753.201 1285.23 750.96C1294.73 744.093 1303.63 736.404 1313.12 729.536C1320.69 724.067 1328.78 719.339 1336.64 714.281C1336.64 714.281 1336.65 714.288 1336.57 715.422C1336.52 718.075 1336.56 719.588 1336.6 721.102C1336.6 721.102 1336.69 721.275 1335.51 721.39C1330.24 726.101 1326.15 730.699 1322.06 735.301Z" fill="#1C377E"/>
<path d="M1780.34 709.378C1774.11 719.066 1767.89 728.754 1760.42 740.378C1765.77 742.977 1773.85 746.915 1784.4 752.047C1784.24 719.526 1814.6 733.363 1826.06 719.273C1824.57 722.214 1823.08 725.154 1821.38 729.056C1821.17 730.019 1821.02 731.08 1819.35 731.399C1814.16 735.924 1810.64 740.128 1807.12 744.333C1803.27 747.09 1799.41 749.848 1793.65 752.971C1790.83 753.761 1790.08 754.393 1789.51 755.233C1789.51 755.233 1789.47 755.904 1787.86 756.111C1758.77 767.499 1730.82 775.086 1700.87 767.573C1698.13 767.408 1695.4 767.246 1691.33 766.958C1690.01 766.835 1690.13 766.702 1690.13 766.702C1688.85 766.189 1687.57 765.679 1684.28 764.331C1682.27 763.491 1681.54 763.221 1681.54 763.221C1680.01 762.774 1678.47 762.328 1674.75 761.078C1672.57 760.273 1672.85 760.091 1672.85 760.091C1671.59 759.571 1670.34 759.048 1667.34 757.656C1665.59 756.785 1665.77 756.599 1665.77 756.599C1625.42 738.372 1604.38 706.895 1601.37 662.948C1599.2 631.151 1604.45 601.416 1625.61 576.234C1629.64 571.446 1634.72 567.536 1640.48 562.98C1641.31 568.264 1640.96 573.789 1640.51 581.085C1664.85 593.379 1634.03 609.376 1638.47 620.209C1644.38 615.945 1651.27 610.978 1659.35 607.528C1630.39 666.401 1669.74 720.039 1711.41 726.98C1736.97 731.241 1759.67 724.272 1780.34 709.378Z" fill="#35B3D0"/>
<path d="M1196.17 577.281C1188.82 577.211 1181.46 577.144 1172.84 577.183C1171.58 577.291 1171.56 577.274 1171.56 577.274C1170.2 574.214 1168.85 571.151 1167.58 568.274C1179.79 547.933 1199.76 542.671 1223.8 546.001C1223.24 543.731 1222.68 541.459 1222.12 539.186C1216.89 539.186 1211.66 539.186 1205.02 539.021C1256.31 523.221 1326.58 539.646 1350.91 606.387C1364.96 644.946 1363.54 684.432 1337.61 720.584C1336.56 719.59 1336.52 718.076 1337.58 714.823C1340.57 708.954 1342.45 704.823 1344.34 700.692C1342.95 700.211 1341.56 699.729 1340.17 699.248C1338.99 704.261 1337.82 709.27 1336.64 714.282C1328.78 719.341 1320.69 724.069 1313.12 729.538C1303.63 736.405 1294.73 744.094 1285.23 750.962C1282.13 753.203 1276.25 756.203 1274.64 754.963C1270.99 752.149 1267.33 746.989 1267.16 742.647C1266.98 737.958 1269.48 730.511 1273.02 728.772C1290.55 720.159 1303.2 707.015 1312.55 690.403C1313.31 689.04 1310.03 685.394 1307.34 681.298C1315.29 638.623 1308.45 603.377 1269.38 578.546C1262.62 565.798 1255.06 560.36 1243.69 574.502C1228.52 576.803 1214.8 578.672 1200.85 579.684C1200.31 578.321 1200 577.815 1199.42 576.649C1198.14 576.427 1197.15 576.863 1196.16 577.295C1196.16 577.291 1196.17 577.281 1196.17 577.281ZM1250.57 539.365C1250.27 540.022 1249.97 540.682 1249.66 541.339C1250.17 541.571 1250.68 542 1251.19 542.003C1256.27 542.052 1261.36 542.035 1266.44 542.035C1266.46 541.294 1266.47 540.552 1266.48 539.811C1261.95 539.6 1257.42 539.386 1250.57 539.365ZM1230.36 568.355C1231.76 568.805 1233.15 569.332 1234.58 569.644C1234.88 569.708 1235.34 568.949 1235.73 568.573C1234.32 568.12 1232.92 567.667 1230.36 568.355Z" fill="#2A5D9D"/>
<path d="M412.042 367.324C404.077 384.371 397.092 403.526 385.611 419.435C367.629 444.347 366.365 443.346 336.933 433.169C321.488 427.83 305.666 423.478 290.521 417.411C277.721 412.286 265.862 404.857 253.189 399.36C244.238 395.482 234.451 393.567 225.356 389.97C216.852 386.605 208.768 382.179 198.89 377.451C213.496 360.236 226.793 344.562 240.459 327.949C243.358 324.117 245.888 321.223 249.448 317.437C250.479 316.545 250.214 316.802 250.214 316.802C251.905 315.253 253.596 313.705 256.737 311.266C258.187 310.375 258.322 310.385 258.322 310.385C261.799 326.481 274.779 331.001 288.167 335.794C323.057 348.284 357.859 361.047 392.431 374.388C401.432 377.862 406.855 376.06 412.042 367.324Z" fill="#3CC9DD"/>
<path d="M2074.51 543.326C2083.73 573.721 2079.44 580.36 2050.54 580.395C2000.24 580.452 2000.22 580.452 2000.32 630.95C2000.4 669.519 1999.89 708.109 2000.97 746.654C2001.4 762.334 1995.46 766.75 1980.74 766.968C1944.11 767.509 1944.32 768.046 1944.51 731.398C1944.7 691.779 1944.53 652.156 1944.39 612.533C1944.29 585.296 1939.74 580.796 1913.21 580.374C1908.08 580.294 1902.97 579.349 1898.63 578.256C1909.31 577.775 1919.46 576.458 1929.03 578.242C1941.55 580.575 1956.71 580.273 1960.96 597.179C1962.73 604.215 1961.96 613.815 1973.72 611.247C1983.23 609.171 1990.77 605.673 1990.39 592.925C1990.26 588.513 1997.03 580.698 2001.56 579.946C2014.61 577.782 2028.13 578.119 2041.47 578.028C2075.38 577.793 2075.38 577.915 2074.51 543.326Z" fill="#2492BE"/>
<path d="M2073.68 541.163C2075.38 577.913 2075.38 577.793 2041.47 578.029C2028.13 578.12 2014.61 577.783 2001.55 579.947C1997.02 580.698 1990.26 588.514 1990.39 592.926C1990.77 605.673 1983.23 609.172 1973.72 611.248C1961.96 613.816 1962.73 604.216 1960.96 597.18C1956.71 580.273 1941.55 580.575 1929.03 578.243C1919.46 576.459 1909.31 577.776 1897.97 577.379C1892.35 577.277 1888.17 577.512 1882.31 576.244C1877.56 573.283 1874.5 571.822 1871.45 570.36C1871.08 563.114 1870.71 555.864 1871.75 546.98C1876.61 542.688 1880.06 540.032 1883.52 537.376C1886.82 536.758 1890.13 536.136 1895.04 535.423C1896.66 535.332 1896.48 535.388 1896.48 535.388C1943.99 535.346 1991.5 535.304 2040.77 535.069C2042.55 534.875 2042.14 534.9 2042.14 534.9C2048.39 534.967 2054.62 535.034 2063.09 534.795C2065.32 534.493 2065.1 534.496 2065.1 534.496C2067.69 535.996 2070.27 537.499 2073.68 541.163Z" fill="#35B3D0"/>
<path d="M2439.14 559.321C2435.2 534.553 2440.16 528.578 2463.85 528.441C2469.7 528.409 2475.55 528.479 2481.39 528.42C2492.9 528.307 2498.77 533.903 2498.78 545.467C2498.8 614.484 2498.78 683.504 2498.86 752.521C2498.88 765.114 2492.55 770.584 2480.33 770.264C2474.49 770.109 2468.64 770.331 2462.79 770.288C2440.38 770.134 2439.58 768.216 2439.45 745.995C2439.1 686.462 2437.77 626.933 2436.96 567.403C2436.93 565.183 2438.22 562.946 2439.14 559.321ZM2463.29 764.039C2472.86 762.114 2488.69 770.38 2488.9 752.145C2489.67 684.432 2489.24 616.707 2489.39 548.986C2489.42 536.084 2480.21 537.04 2472.3 537.981C2463.77 539 2449.27 531.63 2449.1 547.957C2448.41 615.481 2448.64 683.02 2449.36 750.544C2449.41 754.956 2456.4 759.29 2463.29 764.039Z" fill="#D4D4D7"/>
<path d="M492.254 229.355C500.479 208.807 497.564 204.325 475.695 204.303C464.733 204.293 453.772 204.361 441.487 204.671C461.53 198.214 482.61 199.161 506.523 205.099C500.89 215.388 496.886 222.7 492.254 229.355Z" fill="#35B3D0"/>
<path d="M1701.72 768.619C1730.82 775.086 1758.77 767.502 1787.53 756.191C1762.77 777.752 1732.75 774.264 1701.72 768.619Z" fill="#3CC9DD"/>
<path d="M413.384 871.635C403.519 854.809 394.366 837.014 385.267 818.035C394.911 834.791 404.506 852.726 413.384 871.635Z" fill="#2492BE"/>
<path d="M365.43 209.395C356.478 219.506 346.956 228.795 336.843 238.54C345.788 228.855 355.326 218.714 365.43 209.395Z" fill="#35B3D0"/>
<path d="M294.244 655.006C290.717 643.488 288.13 632.711 286.114 621.203C292.987 635.767 299.289 651.064 305.228 667.792C304.866 669.218 303.967 669.699 303.967 669.699C301.039 665.048 298.111 660.398 294.244 655.006Z" fill="#35B3D0"/>
<path d="M337.986 727.44C331.54 717.879 325.081 707.06 318.819 694.909C319.017 693.578 319.675 693.402 319.675 693.402C325.774 704.33 331.874 715.255 337.986 727.44Z" fill="#2492BE"/>
<path d="M312.558 259.443C308.093 264.772 303.485 269.146 298.393 274.039C302.744 269.201 307.579 263.844 312.558 259.443Z" fill="#35B3D0"/>
<path d="M473.844 261.911C476.415 256.061 479.902 250.416 483.498 244.145C480.657 249.717 477.71 255.918 473.844 261.911Z" fill="#35B3D0"/>
<path d="M1882.94 536.606C1880.07 540.028 1876.61 542.683 1872.18 545.469C1868.07 534.513 1874.1 533.888 1882.94 536.606Z" fill="#2492BE"/>
<path d="M351.783 752.047C347.58 746.293 343.273 739.369 338.784 731.301C342.96 737.069 347.318 743.975 351.783 752.047Z" fill="#2492BE"/>
<path d="M1322.94 735.905C1326.15 730.703 1330.24 726.101 1335.41 721.408C1332.27 726.379 1328.04 731.447 1322.94 735.905Z" fill="#2A5D9D"/>
<path d="M1871.13 571.176C1874.51 571.822 1877.56 573.283 1880.81 575.851C1877.6 575.3 1874.2 573.645 1871.13 571.176Z" fill="#2492BE"/>
<path d="M1808.22 744.462C1810.64 740.127 1814.16 735.923 1818.84 731.57C1816.44 735.81 1812.88 740.204 1808.22 744.462Z" fill="#3CC9DD"/>
<path d="M288.034 280.672C286.395 283.302 284.652 285.057 282.715 287.342C284.324 285.18 286.127 282.489 288.034 280.672Z" fill="#35B3D0"/>
<path d="M304.066 670.963C303.967 669.698 304.865 669.213 305.327 669.006C305.79 668.795 306.968 669.624 307.281 670.232C307.594 670.84 307.547 670.734 307.547 670.734C308.957 673.425 310.366 676.119 312.079 680.292C309.643 678.592 306.904 675.41 304.066 670.963Z" fill="#2492BE"/>
<path d="M358.673 765.771C356.717 763.516 354.817 760.27 352.822 755.988C354.726 758.226 356.728 761.507 358.673 765.771Z" fill="#2492BE"/>
<path d="M277.626 291.6C276.359 293.76 274.244 295.678 271.627 297.997C273.009 296.051 274.894 293.704 277.626 291.6Z" fill="#35B3D0"/>
<path d="M2065.55 534.064C2065.1 534.496 2065.32 534.493 2065.42 534.5C2065.08 533.674 2064.65 532.835 2064.22 531.999C2064.67 531.851 2065.13 531.7 2065.59 531.553C2065.72 532.245 2065.87 532.94 2065.55 534.064Z" fill="#2492BE"/>
<path d="M319.868 692.384C319.675 693.406 319.017 693.582 318.696 693.694C317.037 691.379 315.7 688.948 314.272 685.506C316.141 686.784 318.101 689.075 319.868 692.384Z" fill="#35B3D0"/>
<path d="M876.161 358.438C873.249 357.83 869.867 356.211 866.446 353.334C869.502 353.857 872.596 355.642 876.161 358.438Z" fill="#D4D4D7"/>
<path d="M324.28 249.873C323.985 251.215 322.962 252.253 321.536 253.647C321.94 252.525 322.746 251.047 324.28 249.873Z" fill="#35B3D0"/>
<path d="M462.953 280.224C462.816 278.867 463.399 277.787 464.284 276.41C464.284 277.575 463.978 279.038 462.953 280.224Z" fill="#35B3D0"/>
<path d="M365.058 776.965C363.446 776.027 362.013 774.162 360.661 771.369C362.242 772.307 363.745 774.172 365.058 776.965Z" fill="#2492BE"/>
<path d="M2042.2 534.361C2042.14 534.895 2042.55 534.871 2042.65 534.892C2042.56 533.993 2042.37 533.072 2042.17 532.148C2042.2 532.707 2042.23 533.265 2042.2 534.361Z" fill="#2492BE"/>
<path d="M258.935 310.002C258.322 310.388 258.187 310.378 258.197 310.362C258.976 309.495 259.744 308.645 261.192 307.846C261.127 308.511 260.352 309.085 258.935 310.002Z" fill="#35B3D0"/>
<path d="M267.813 302.557C267.736 303.428 266.783 304.748 265.697 305.24C266.022 303.943 266.48 303.473 267.813 302.557Z" fill="#3CC9DD"/>
<path d="M1681.04 763.441C1681.54 763.223 1682.27 763.494 1682.41 763.459C1682.54 763.424 1681.64 764.495 1681.64 764.495C1681.64 764.495 1680.54 763.659 1681.04 763.441Z" fill="#3CC9DD"/>
<path d="M367.506 779.758C367.432 779.611 367.558 780.021 367.604 780.119C367.653 780.221 367.58 779.905 367.506 779.758Z" fill="#2492BE"/>
<path d="M416.755 875.101C416.615 874.965 416.8 875.382 416.825 875.497C416.85 875.613 416.899 875.238 416.755 875.101Z" fill="#2492BE"/>
<path d="M377.023 802.436C376.725 802.274 377.174 801.403 377.308 800.932C377.438 800.461 378.509 800.679 378.509 800.679C378.509 800.679 378.842 801.719 378.407 802.053C377.968 802.383 377.322 802.597 377.023 802.436Z" fill="#2492BE"/>
<path d="M1690.04 767.078C1690.12 766.706 1690.01 766.839 1689.96 766.769C1689.92 766.699 1689.71 767.784 1689.71 767.784C1689.71 767.784 1689.95 767.447 1690.04 767.078Z" fill="#3CC9DD"/>
<path d="M427.119 892.259C427.07 892.123 427.221 892.589 427.322 892.662C427.424 892.739 427.171 892.399 427.119 892.259Z" fill="#2492BE"/>
<path d="M1672.61 760.149C1672.84 760.09 1672.57 760.268 1672.53 760.177C1672.48 760.083 1672.38 760.208 1672.61 760.149Z" fill="#3CC9DD"/>
<path d="M1665.52 756.7C1665.77 756.595 1665.59 756.783 1665.55 756.689C1665.51 756.595 1665.28 756.804 1665.52 756.7Z" fill="#3CC9DD"/>
<path d="M1790.21 755.01C1790.08 754.395 1790.83 753.763 1792.47 753.166C1792.58 753.788 1791.82 754.381 1790.21 755.01Z" fill="#3CC9DD"/>
<path d="M307.758 670.952C307.548 670.739 307.595 670.844 307.556 670.903C307.517 670.959 307.968 671.166 307.758 670.952Z" fill="#35B3D0"/>
<path d="M293.823 609.601C293.869 609.447 293.95 609.853 293.86 609.913C293.77 609.976 293.777 609.755 293.823 609.601Z" fill="#35B3D0"/>
<path d="M1896.31 534.883C1896.48 535.382 1896.66 535.325 1896.74 535.357C1896.83 535.389 1897.08 534.029 1897.08 534.029C1897.08 534.029 1896.14 534.384 1896.31 534.883Z" fill="#2492BE"/>
<path d="M250.329 316.722C250.215 316.805 250.479 316.549 250.552 316.494C250.624 316.439 250.442 316.64 250.329 316.722Z" fill="#35B3D0"/>
<path d="M1684.98 581.066C1683.25 584.554 1680.09 587.99 1675.82 591.738C1670.05 583.634 1671.13 582.285 1684.98 581.066Z" fill="#35B3D0"/>
<path d="M1666.42 598.068C1665.48 601.044 1663.91 603.271 1661.32 605.782C1662.13 603.151 1663.95 600.232 1666.42 598.068Z" fill="#35B3D0"/>
<path d="M1695.14 577.924C1693.78 579.923 1691.83 580.857 1688.75 581.781C1689.94 580.133 1692.24 578.5 1695.14 577.924Z" fill="#35B3D0"/>
<path d="M1782.12 709.965C1781.29 709.916 1780.91 708.349 1781.29 707.643C1782.5 707.594 1783.32 708.254 1784.14 708.911C1783.74 709.28 1783.35 709.649 1782.12 709.965Z" fill="#35B3D0"/>
<path d="M1168.05 580.793C1166.2 587.239 1164.36 593.685 1162.51 600.13C1160.6 599.473 1158.69 598.82 1156.77 598.163C1159.68 592.511 1162.59 586.856 1166.78 581.004C1168.07 580.807 1168.05 580.793 1168.05 580.793Z" fill="#2A5D9D"/>
<path d="M1200.85 579.683C1200.48 581.485 1199.61 581.956 1197.71 581.963C1196.78 581.197 1196.63 580.417 1196.33 578.457C1196.17 577.28 1196.16 577.291 1197.04 577.344C1198.52 577.368 1199.11 577.337 1199.7 577.309C1200.01 577.814 1200.31 578.32 1200.85 579.683Z" fill="#2A5D9D"/>
<path d="M1168.07 580.814C1168.42 579.679 1169.06 578.752 1170.79 577.66C1171.56 577.277 1171.58 577.294 1171.59 577.305C1171.24 578.453 1170.58 579.367 1168.83 580.424C1168.05 580.793 1168.07 580.807 1168.07 580.814Z" fill="#2A5D9D"/>
<path d="M1350.61 684.121C1350.17 686.489 1349.88 687.581 1349.42 688.59C1349.38 688.677 1347.55 688.182 1347.56 688.02C1348.76 669.832 1350.05 651.647 1355.29 633.799C1353.77 650.136 1352.24 666.477 1350.61 684.121Z" fill="#1C377E"/>
<path d="M1269.39 578.549C1262.08 578.419 1254.85 576.814 1246.38 574.639C1255.06 560.364 1262.61 565.805 1269.39 578.549Z" fill="#1C377E"/>
<path d="M1251.72 539.27C1257.41 539.389 1261.95 539.603 1266.48 539.814C1266.47 540.555 1266.45 541.296 1266.44 542.038C1261.36 542.038 1256.27 542.055 1251.19 542.006C1250.68 542.002 1250.17 541.574 1249.66 541.342C1249.96 540.685 1250.27 540.025 1251.72 539.27Z" fill="#1C377E"/>
<path d="M1336.64 714.286C1337.81 709.273 1338.99 704.261 1340.17 699.248C1341.56 699.733 1342.94 700.214 1344.33 700.695C1342.45 704.823 1340.56 708.954 1337.66 713.689C1336.65 714.289 1336.64 714.286 1336.64 714.286Z" fill="#1C377E"/>
<path d="M1230.93 567.788C1232.91 567.672 1234.32 568.122 1235.72 568.575C1235.34 568.954 1234.87 569.709 1234.58 569.646C1233.15 569.337 1231.76 568.81 1230.93 567.788Z" fill="#1C377E"/>
<path d="M1199.42 576.651C1199.11 577.343 1198.52 577.371 1197.04 577.353C1197.15 576.869 1198.14 576.429 1199.42 576.651Z" fill="#1C377E"/>
<path d="M2461.73 763.853C2456.4 759.293 2449.4 754.955 2449.36 750.547C2448.64 683.022 2448.4 615.484 2449.1 547.96C2449.27 531.633 2463.77 538.999 2472.29 537.984C2480.21 537.043 2489.42 536.084 2489.39 548.986C2489.24 616.707 2489.67 684.435 2488.9 752.148C2488.69 770.383 2472.85 762.117 2461.73 763.853Z" fill="#41F0F2"/>
</svg>
